<?xml version="1.0" encoding="UTF-8"?>
<svg width="221px" height="89px" viewBox="0 0 221 89" version="1.1" xmlns="http://www.w3.org/2000/svg" xmlns:xlink="http://www.w3.org/1999/xlink">
    <title>stem-logo__primary@3x</title>
    <g id="Symbols" stroke="none" stroke-width="1" fill="none" fill-rule="evenodd">
        <g id="stem-logo__primary" transform="translate(-0.000200, 0.000000)">
            <g id="CIRCLES">
                <path d="M59.747,10.998 C53.448,4.235 44.471,0 34.5,0 C15.446,0 0,15.446 0,34.5 C0,53.554 15.446,69 34.5,69 C44.471,69 53.448,64.765 59.747,58.002 C54.009,51.841 50.494,43.583 50.494,34.5 C50.494,25.417 54.009,17.159 59.747,10.998" id="Fill-1" fill="#F38B4F"></path>
                <path d="M110.2405,10.998 C103.9415,4.235 94.9645,0 84.9935,0 C75.0225,0 66.0455,4.235 59.7465,10.998 C65.4845,17.159 69.0005,25.417 69.0005,34.5 C69.0005,43.583 65.4845,51.841 59.7465,58.002 C66.0455,64.765 75.0225,69 84.9935,69 C94.9645,69 103.9415,64.765 110.2405,58.002 C104.5025,51.841 100.9875,43.583 100.9875,34.5 C100.9875,25.417 104.5025,17.159 110.2405,10.998" id="Fill-4" fill="#19BCF0"></path>
                <path d="M59.747,10.998 C54.009,17.159 50.494,25.417 50.494,34.5 C50.494,43.583 54.009,51.841 59.747,58.002 C65.485,51.841 69,43.583 69,34.5 C69,25.417 65.485,17.159 59.747,10.998" id="Fill-6" fill="#0097C5"></path>
                <path d="M160.734,10.998 C154.435,4.235 145.458,0 135.487,0 C125.517,0 116.539,4.235 110.241,10.998 C115.978,17.159 119.494,25.417 119.494,34.5 C119.494,43.583 115.978,51.841 110.241,58.002 C116.539,64.765 125.517,69 135.487,69 C145.458,69 154.435,64.765 160.734,58.002 C154.996,51.841 151.481,43.583 151.481,34.5 C151.481,25.417 154.996,17.159 160.734,10.998" id="Fill-8" fill="#A4CF62"></path>
                <path d="M110.2405,10.998 C104.5025,17.159 100.9875,25.417 100.9875,34.5 C100.9875,43.583 104.5025,51.841 110.2405,58.002 C115.9785,51.841 119.4935,43.583 119.4935,34.5 C119.4935,25.417 115.9785,17.159 110.2405,10.998" id="Fill-10" fill="#68BD1C"></path>
                <path d="M185.9807,0 C176.0097,0 167.0327,4.235 160.7337,10.998 C166.4717,17.159 169.9877,25.417 169.9877,34.5 C169.9877,43.583 166.4717,51.841 160.7337,58.002 C167.0327,64.765 176.0097,69 185.9807,69 C205.0347,69 220.4807,53.554 220.4807,34.5 C220.4807,15.446 205.0347,0 185.9807,0" id="Fill-12" fill="#EF59A2"></path>
                <path d="M160.734,10.998 C154.996,17.159 151.481,25.417 151.481,34.5 C151.481,43.583 154.996,51.841 160.734,58.002 C166.472,51.841 169.987,43.583 169.987,34.5 C169.987,25.417 166.472,17.159 160.734,10.998" id="Fill-14" fill="#EC006E"></path>
            </g>
            <g id="STEM" transform="translate(23.375100, 18.301400)" fill="#FFFFFF">
                <path d="M2.478,23.1107 C2.478,25.1137 3.093,26.6727 4.326,27.7847 C4.97,28.3407 5.691,28.7567 6.489,29.0357 C7.287,29.3137 8.259,29.4537 9.408,29.4537 C11.368,29.4537 13.005,28.8667 14.322,27.6917 C15.637,26.5177 16.295,25.0067 16.295,23.1627 C16.295,22.2127 16.03,21.2897 15.498,20.3937 C14.994,19.4437 14.293,18.7307 13.398,18.2557 C12.585,17.7537 11.171,17.2347 9.156,16.7037 L6.761,16.0327 C4.914,15.5857 3.478,14.7397 2.457,13.4957 C1.435,12.2517 0.924,10.7207 0.924,8.9037 C0.924,6.4707 1.759,4.4857 3.429,2.9477 C5.098,1.4107 7.238,0.6407 9.849,0.6407 C12.571,0.6407 14.759,1.3627 16.416,2.8037 C18.072,4.2467 18.9,6.2417 18.9,8.7897 L16.113,8.7897 C15.944,6.9977 15.295,5.5897 14.169,4.5677 C13.043,3.5467 11.537,3.0357 9.651,3.0357 C7.876,3.0357 6.434,3.5667 5.322,4.6297 C4.209,5.6917 3.654,7.0607 3.654,8.7387 C3.654,10.5557 4.103,11.7727 5.002,12.3867 C5.815,12.9197 6.518,13.3247 7.107,13.6037 L10.519,14.4847 C12.288,14.9037 13.79,15.4767 15.025,16.2047 C16.26,16.9307 17.215,17.8947 17.889,19.0967 C18.563,20.2997 18.9,21.6567 18.9,23.1657 C18.9,25.7377 18.018,27.8487 16.253,29.4997 C14.49,31.1487 12.236,31.9727 9.492,31.9727 C6.523,31.9727 4.2,31.1997 2.52,29.6537 C0.84,28.1067 0,25.9257 0,23.1107 L2.478,23.1107 Z" id="Fill-16"></path>
                <polygon id="Fill-18" points="52.7319 1.2288 72.5979 1.2288 72.5979 3.6658 64.0299 3.6658 64.0299 31.5108 61.2999 31.5108 61.2999 3.6658 52.7319 3.6658"></polygon>
                <polygon id="Fill-20" points="103.3432 1.2288 119.7662 1.2288 119.7662 3.7498 106.0732 3.7498 106.0732 15.0468 119.8082 15.0468 119.8082 17.5668 106.0732 17.5668 106.0732 29.0758 120.2702 29.0758 120.2702 31.5108 103.3432 31.5108"></polygon>
                <polygon id="Fill-22" points="153.602 0.137 165.027 26.502 176.366 0 186.109 31.512 183.343 31.522 175.895 7.293 164.995 32.661 154.174 7.583 146.791 31.522 143.984 31.511"></polygon>
            </g>
            <g id="WOMEN" transform="translate(55.902400, 75.428100)" fill="#001B2E">
                <path d="M3.229,12.3844 L0,0.2154 L1.652,0.2154 L3.503,8.1934 C3.702,9.0284 3.874,9.8584 4.018,10.6834 C4.328,9.3824 4.51,8.6324 4.565,8.4334 L6.881,0.2154 L8.824,0.2154 L10.567,6.3744 C11.004,7.9024 11.32,9.3374 11.513,10.6834 C11.668,9.9134 11.871,9.0304 12.119,8.0344 L14.029,0.2154 L15.647,0.2154 L12.31,12.3844 L10.757,12.3844 L8.193,3.1134 C7.977,2.3374 7.85,1.8624 7.811,1.6854 C7.684,2.2434 7.565,2.7194 7.454,3.1134 L4.873,12.3844 L3.229,12.3844 Z" id="Fill-24"></path>
                <path d="M28.7447,6.482 C28.7447,7.949 29.1387,9.104 29.9277,9.948 C30.7157,10.792 31.7047,11.214 32.8947,11.214 C34.1057,11.214 35.1037,10.788 35.8877,9.935 C36.6707,9.084 37.0607,7.875 37.0607,6.308 C37.0607,5.318 36.8937,4.453 36.5587,3.714 C36.2237,2.975 35.7347,2.403 35.0907,1.996 C34.4457,1.589 33.7227,1.386 32.9197,1.386 C31.7797,1.386 30.7987,1.777 29.9767,2.56 C29.1547,3.343 28.7447,4.651 28.7447,6.482 M27.0847,6.458 C27.0847,4.438 27.6267,2.856 28.7117,1.713 C29.7957,0.571 31.1957,0 32.9107,0 C34.0347,0 35.0477,0.268 35.9497,0.804 C36.8507,1.341 37.5387,2.09 38.0127,3.05 C38.4847,4.01 38.7217,5.099 38.7217,6.316 C38.7217,7.55 38.4737,8.655 37.9747,9.628 C37.4767,10.602 36.7707,11.339 35.8577,11.84 C34.9447,12.341 33.9597,12.591 32.9027,12.591 C31.7577,12.591 30.7337,12.315 29.8317,11.761 C28.9297,11.209 28.2467,10.453 27.7817,9.496 C27.3167,8.539 27.0847,7.526 27.0847,6.458" id="Fill-26"></path>
                <path d="M51.522,12.3844 L51.522,0.2154 L53.946,0.2154 L56.827,8.8314 C57.092,9.6344 57.286,10.2344 57.407,10.6324 C57.545,10.1904 57.761,9.5394 58.055,8.6824 L60.968,0.2154 L63.135,0.2154 L63.135,12.3844 L61.583,12.3844 L61.583,2.1984 L58.046,12.3844 L56.594,12.3844 L53.075,2.0254 L53.075,12.3844 L51.522,12.3844 Z" id="Fill-28"></path>
                <polygon id="Fill-30" points="76.5493 12.3844 76.5493 0.2154 85.3483 0.2154 85.3483 1.6524 78.1593 1.6524 78.1593 5.3784 84.8923 5.3784 84.8923 6.8064 78.1593 6.8064 78.1593 10.9484 85.6303 10.9484 85.6303 12.3844"></polygon>
                <polygon id="Fill-32" points="98.2984 12.3844 98.2984 0.2154 99.9504 0.2154 106.3414 9.7694 106.3414 0.2154 107.8864 0.2154 107.8864 12.3844 106.2344 12.3844 99.8424 2.8214 99.8424 12.3844"></polygon>
            </g>
        </g>
    </g>
</svg>